<svg width="425" height="98" viewBox="0 0 425 98" fill="none" xmlns="http://www.w3.org/2000/svg">
<g clip-path="url(#clip0_47_698)">
<g opacity="0.2" filter="url(#filter0_f_47_698)">
<path d="M16.6369 22.1367H67.0863V37.1082H36.6896V47.8151H62.8217V62.1515H36.6896V84.5634H16.6369V22.1367Z" fill="#00041B"/>
</g>
<mask id="mask0_47_698" style="mask-type:alpha" maskUnits="userSpaceOnUse" x="19" y="19" width="49" height="61">
<path d="M19.514 19.408H67.9364V33.778H38.7611V44.0547H63.8432V57.815H38.7611V79.3264H19.514V19.408Z" fill="#FFA031"/>
</mask>
<g mask="url(#mask0_47_698)">
<rect x="22.6226" y="-33.8734" width="65.5791" height="105.417" transform="rotate(42.4204 22.6226 -33.8734)" fill="#03C1C5"/>
<rect x="54.5322" y="6.78964" width="44.6774" height="105.417" transform="rotate(42.4204 54.5322 6.78964)" fill="#EB3252"/>
</g>
<g opacity="0.2" filter="url(#filter1_f_47_698)">
<path d="M105.56 20.8851C111.549 20.8851 116.933 21.7924 121.712 23.6072C126.49 25.4219 130.271 28.1137 133.054 31.6827C135.897 35.1912 137.318 39.486 137.318 44.5673H118.173C118.173 41.9662 117.024 39.8792 114.725 38.3065C112.426 36.6732 109.644 35.8566 106.377 35.8566C101.659 35.8566 98.0898 37.1269 95.6702 39.6675C93.2506 42.1476 92.0408 45.6864 92.0408 50.2837V56.0908C92.0408 60.6881 93.2506 64.2571 95.6702 66.7977C98.0898 69.2778 101.659 70.5179 106.377 70.5179C109.644 70.5179 112.426 69.7618 114.725 68.2495C117.024 66.6767 118.173 64.6805 118.173 62.2609H104.018V49.5578H137.318V84.4006H126.974L124.978 78.2305C119.292 83.0698 111.852 85.4894 102.657 85.4894C92.313 85.4894 84.5399 82.7976 79.3376 77.4139C74.1354 71.9697 71.5343 63.8942 71.5343 53.1872C71.5343 42.6013 74.4681 34.5863 80.3357 29.1421C86.2639 23.6374 94.6721 20.8851 105.56 20.8851Z" fill="#00041B"/>
</g>
<path d="M109.171 18.363C114.919 18.363 120.087 19.2339 124.673 20.9757C129.26 22.7175 132.889 25.3012 135.56 28.7267C138.289 32.0942 139.653 36.2165 139.653 41.0936H121.277C121.277 38.597 120.174 36.5939 117.967 35.0843C115.761 33.5167 113.09 32.7329 109.955 32.7329C105.426 32.7329 102.001 33.9522 99.6784 36.3907C97.356 38.7712 96.1948 42.1677 96.1948 46.5803V52.1541C96.1948 56.5667 97.356 59.9923 99.6784 62.4308C102.001 64.8113 105.426 66.0015 109.955 66.0015C113.09 66.0015 115.761 65.2758 117.967 63.8242C120.174 62.3147 121.277 60.3987 121.277 58.0763H107.691V45.8836H139.653V79.3264H129.725L127.809 73.4042C122.351 78.049 115.21 80.3715 106.384 80.3715C96.4561 80.3715 88.9953 77.7878 84.0021 72.6204C79.0089 67.395 76.5123 59.6439 76.5123 49.3672C76.5123 39.2066 79.3283 31.5136 84.9601 26.2882C90.65 21.0047 98.7204 18.363 109.171 18.363Z" fill="white"/>
<g opacity="0.2" filter="url(#filter2_f_47_698)">
<path d="M60.8099 83.5634V21.1367H80.8626V83.5634H60.8099Z" fill="#00041B"/>
</g>
<path d="M66.5036 79.3264V19.408H85.7506V79.3264H66.5036Z" fill="url(#paint0_linear_47_698)"/>
<path d="M181.857 33.673C184.091 33.673 186.081 34.1965 187.826 35.2437C189.571 36.2559 190.933 37.6696 191.91 39.4846C192.887 41.2648 193.376 43.2718 193.376 45.5057V46.1864C193.376 48.4203 192.887 50.4448 191.91 52.2598C190.933 54.0749 189.571 55.506 187.826 56.5532C186.081 57.5654 184.091 58.0715 181.857 58.0715H173.218V69.6949H161.647V33.673H181.857ZM173.218 49.642H177.983C179.205 49.642 180.112 49.3278 180.705 48.6995C181.334 48.0713 181.648 47.2161 181.648 46.134V45.7152C181.648 44.5982 181.334 43.743 180.705 43.1497C180.112 42.5214 179.205 42.2072 177.983 42.2072H173.218V49.642ZM217.339 33.0447C223.552 33.0447 228.351 34.6329 231.737 37.8092C235.123 40.9856 236.816 45.6105 236.816 51.6839C236.816 57.7574 235.123 62.3823 231.737 65.5586C228.351 68.735 223.552 70.3231 217.339 70.3231C211.126 70.3231 206.326 68.7524 202.941 65.611C199.59 62.4346 197.914 57.7923 197.914 51.6839C197.914 45.5756 199.59 40.9506 202.941 37.8092C206.326 34.6329 211.126 33.0447 217.339 33.0447ZM217.339 41.6837C214.861 41.6837 212.976 42.4341 211.684 43.935C210.393 45.4359 209.747 47.4604 209.747 50.0085V53.3594C209.747 55.9074 210.393 57.9319 211.684 59.4328C212.976 60.9337 214.861 61.6842 217.339 61.6842C219.817 61.6842 221.702 60.9337 222.993 59.4328C224.32 57.9319 224.983 55.9074 224.983 53.3594V50.0085C224.983 47.4604 224.32 45.4359 222.993 43.935C221.702 42.4341 219.817 41.6837 217.339 41.6837ZM269.246 69.6949L264.587 47.7571H264.377L259.717 69.6949H246.994L238.565 33.673H250.607L254.743 54.0924H254.953L259.037 33.673H270.451L274.796 54.0924H275.006L278.88 33.673H290.399L281.969 69.6949H269.246ZM294.535 33.673H325.688V42.3119H306.106V47.2859H322.86V55.5584H306.106V61.0559H326.054V69.6949H294.535V33.673ZM366.51 44.7204C366.51 46.9194 365.916 48.909 364.729 50.6891C363.543 52.4693 361.815 53.7782 359.546 54.6159L367.557 69.6949H354.572L348.184 56.5532H343.891V69.6949H332.32V33.673H354.363C356.946 33.673 359.145 34.1791 360.96 35.1913C362.81 36.1687 364.188 37.5125 365.096 39.2229C366.038 40.8983 366.51 42.7308 366.51 44.7204ZM354.729 45.1916C354.729 44.2492 354.415 43.4638 353.787 42.8355C353.158 42.2072 352.391 41.8931 351.483 41.8931H343.891V48.5425H351.483C352.391 48.5425 353.158 48.2283 353.787 47.6C354.415 46.9368 354.729 46.134 354.729 45.1916ZM388.202 33.0447C392.81 33.0447 396.597 33.9871 399.564 35.872C402.531 37.7219 404.049 40.4794 404.119 44.1444V44.7727H393.281V44.5633C393.281 43.5162 392.897 42.6435 392.129 41.9454C391.361 41.2473 390.192 40.8983 388.621 40.8983C387.085 40.8983 385.899 41.1252 385.061 41.5789C384.258 42.0327 383.857 42.5912 383.857 43.2544C383.857 44.1968 384.415 44.8949 385.532 45.3487C386.649 45.8024 388.447 46.2737 390.925 46.7623C393.822 47.3557 396.196 47.984 398.045 48.6472C399.93 49.2755 401.571 50.3226 402.967 51.7886C404.363 53.2546 405.079 55.2442 405.114 57.7574C405.114 62.0158 403.665 65.1747 400.768 67.2341C397.906 69.2934 394.066 70.3231 389.249 70.3231C383.63 70.3231 379.249 69.3807 376.108 67.4958C373.001 65.611 371.448 62.2776 371.448 57.4956H382.391C382.391 59.3106 382.862 60.5323 383.804 61.1606C384.747 61.754 386.213 62.0507 388.202 62.0507C389.668 62.0507 390.873 61.8936 391.815 61.5795C392.792 61.2653 393.281 60.6196 393.281 59.6422C393.281 58.7696 392.74 58.1239 391.658 57.705C390.611 57.2512 388.883 56.78 386.475 56.2914C383.542 55.6631 381.117 55.0173 379.197 54.3541C377.277 53.656 375.602 52.5216 374.171 50.9509C372.739 49.3802 372.024 47.251 372.024 44.5633C372.024 40.6191 373.542 37.7219 376.579 35.872C379.651 33.9871 383.525 33.0447 388.202 33.0447Z" fill="url(#paint1_radial_47_698)"/>
<path d="M181.857 33.673C184.091 33.673 186.081 34.1965 187.826 35.2437C189.571 36.2559 190.933 37.6696 191.91 39.4846C192.887 41.2648 193.376 43.2718 193.376 45.5057V46.1864C193.376 48.4203 192.887 50.4448 191.91 52.2598C190.933 54.0749 189.571 55.506 187.826 56.5532C186.081 57.5654 184.091 58.0715 181.857 58.0715H173.218V69.6949H161.647V33.673H181.857ZM173.218 49.642H177.983C179.205 49.642 180.112 49.3278 180.705 48.6995C181.334 48.0713 181.648 47.2161 181.648 46.134V45.7152C181.648 44.5982 181.334 43.743 180.705 43.1497C180.112 42.5214 179.205 42.2072 177.983 42.2072H173.218V49.642ZM217.339 33.0447C223.552 33.0447 228.351 34.6329 231.737 37.8092C235.123 40.9856 236.816 45.6105 236.816 51.6839C236.816 57.7574 235.123 62.3823 231.737 65.5586C228.351 68.735 223.552 70.3231 217.339 70.3231C211.126 70.3231 206.326 68.7524 202.941 65.611C199.59 62.4346 197.914 57.7923 197.914 51.6839C197.914 45.5756 199.59 40.9506 202.941 37.8092C206.326 34.6329 211.126 33.0447 217.339 33.0447ZM217.339 41.6837C214.861 41.6837 212.976 42.4341 211.684 43.935C210.393 45.4359 209.747 47.4604 209.747 50.0085V53.3594C209.747 55.9074 210.393 57.9319 211.684 59.4328C212.976 60.9337 214.861 61.6842 217.339 61.6842C219.817 61.6842 221.702 60.9337 222.993 59.4328C224.32 57.9319 224.983 55.9074 224.983 53.3594V50.0085C224.983 47.4604 224.32 45.4359 222.993 43.935C221.702 42.4341 219.817 41.6837 217.339 41.6837ZM269.246 69.6949L264.587 47.7571H264.377L259.717 69.6949H246.994L238.565 33.673H250.607L254.743 54.0924H254.953L259.037 33.673H270.451L274.796 54.0924H275.006L278.88 33.673H290.399L281.969 69.6949H269.246ZM294.535 33.673H325.688V42.3119H306.106V47.2859H322.86V55.5584H306.106V61.0559H326.054V69.6949H294.535V33.673ZM366.51 44.7204C366.51 46.9194 365.916 48.909 364.729 50.6891C363.543 52.4693 361.815 53.7782 359.546 54.6159L367.557 69.6949H354.572L348.184 56.5532H343.891V69.6949H332.32V33.673H354.363C356.946 33.673 359.145 34.1791 360.96 35.1913C362.81 36.1687 364.188 37.5125 365.096 39.2229C366.038 40.8983 366.51 42.7308 366.51 44.7204ZM354.729 45.1916C354.729 44.2492 354.415 43.4638 353.787 42.8355C353.158 42.2072 352.391 41.8931 351.483 41.8931H343.891V48.5425H351.483C352.391 48.5425 353.158 48.2283 353.787 47.6C354.415 46.9368 354.729 46.134 354.729 45.1916ZM388.202 33.0447C392.81 33.0447 396.597 33.9871 399.564 35.872C402.531 37.7219 404.049 40.4794 404.119 44.1444V44.7727H393.281V44.5633C393.281 43.5162 392.897 42.6435 392.129 41.9454C391.361 41.2473 390.192 40.8983 388.621 40.8983C387.085 40.8983 385.899 41.1252 385.061 41.5789C384.258 42.0327 383.857 42.5912 383.857 43.2544C383.857 44.1968 384.415 44.8949 385.532 45.3487C386.649 45.8024 388.447 46.2737 390.925 46.7623C393.822 47.3557 396.196 47.984 398.045 48.6472C399.93 49.2755 401.571 50.3226 402.967 51.7886C404.363 53.2546 405.079 55.2442 405.114 57.7574C405.114 62.0158 403.665 65.1747 400.768 67.2341C397.906 69.2934 394.066 70.3231 389.249 70.3231C383.63 70.3231 379.249 69.3807 376.108 67.4958C373.001 65.611 371.448 62.2776 371.448 57.4956H382.391C382.391 59.3106 382.862 60.5323 383.804 61.1606C384.747 61.754 386.213 62.0507 388.202 62.0507C389.668 62.0507 390.873 61.8936 391.815 61.5795C392.792 61.2653 393.281 60.6196 393.281 59.6422C393.281 58.7696 392.74 58.1239 391.658 57.705C390.611 57.2512 388.883 56.78 386.475 56.2914C383.542 55.6631 381.117 55.0173 379.197 54.3541C377.277 53.656 375.602 52.5216 374.171 50.9509C372.739 49.3802 372.024 47.251 372.024 44.5633C372.024 40.6191 373.542 37.7219 376.579 35.872C379.651 33.9871 383.525 33.0447 388.202 33.0447Z" fill="url(#paint2_radial_47_698)" fill-opacity="0.3"/>
</g>
<defs>
<filter id="filter0_f_47_698" x="10.0771" y="15.5771" width="63.569" height="75.546" filterUnits="userSpaceOnUse" color-interpolation-filters="sRGB">
<feFlood flood-opacity="0" result="BackgroundImageFix"/>
<feBlend mode="normal" in="SourceGraphic" in2="BackgroundImageFix" result="shape"/>
<feGaussianBlur stdDeviation="3.27982" result="effect1_foregroundBlur_47_698"/>
</filter>
<filter id="filter1_f_47_698" x="64.9745" y="14.3254" width="78.9034" height="77.7236" filterUnits="userSpaceOnUse" color-interpolation-filters="sRGB">
<feFlood flood-opacity="0" result="BackgroundImageFix"/>
<feBlend mode="normal" in="SourceGraphic" in2="BackgroundImageFix" result="shape"/>
<feGaussianBlur stdDeviation="3.27982" result="effect1_foregroundBlur_47_698"/>
</filter>
<filter id="filter2_f_47_698" x="54.2504" y="14.5771" width="33.172" height="75.546" filterUnits="userSpaceOnUse" color-interpolation-filters="sRGB">
<feFlood flood-opacity="0" result="BackgroundImageFix"/>
<feBlend mode="normal" in="SourceGraphic" in2="BackgroundImageFix" result="shape"/>
<feGaussianBlur stdDeviation="3.27982" result="effect1_foregroundBlur_47_698"/>
</filter>
<linearGradient id="paint0_linear_47_698" x1="76.188" y1="17.1707" x2="76.188" y2="79.0207" gradientUnits="userSpaceOnUse">
<stop stop-color="#FFC700"/>
<stop offset="0.347708" stop-color="#FF7A00"/>
<stop offset="1" stop-color="#E89230"/>
</linearGradient>
<radialGradient id="paint1_radial_47_698" cx="0" cy="0" r="1" gradientUnits="userSpaceOnUse" gradientTransform="translate(282.773 32.6678) rotate(90) scale(37.0085 137.339)">
<stop stop-color="#FFE7CB"/>
<stop offset="0.466574" stop-color="#EEEEEE"/>
<stop offset="1" stop-color="white"/>
</radialGradient>
<radialGradient id="paint2_radial_47_698" cx="0" cy="0" r="1" gradientUnits="userSpaceOnUse" gradientTransform="translate(198.642 31.2012) rotate(90) scale(13.775 169.463)">
<stop stop-color="#EB3252"/>
<stop offset="1" stop-color="white" stop-opacity="0"/>
</radialGradient>
<clipPath id="clip0_47_698">
<rect width="425" height="98" fill="white"/>
</clipPath>
</defs>
</svg>
