<svg width="12" height="12" viewBox="0 0 12 12" fill="none" xmlns="http://www.w3.org/2000/svg">
<path d="M11.0567 4.10818L7.98368 1.03569C7.88962 0.94153 7.77794 0.866835 7.655 0.815872C7.53206 0.764909 7.40028 0.738678 7.2672 0.738678C7.13412 0.738678 7.00234 0.764909 6.8794 0.815872C6.75646 0.866835 6.64477 0.94153 6.55072 1.03569L3.91976 3.67576C3.29037 3.50715 2.06249 3.38613 0.793593 4.40996C0.682785 4.49911 0.591997 4.6106 0.527142 4.73717C0.462286 4.86374 0.424817 5.00255 0.417174 5.14456C0.409531 5.28658 0.431886 5.42861 0.482783 5.5614C0.53368 5.6942 0.611978 5.81479 0.712578 5.91532L3.01442 8.21767L0.999169 10.2329C0.885022 10.3471 0.820894 10.5019 0.820894 10.6633C0.820894 10.8247 0.885022 10.9796 0.999169 11.0937C1.11332 11.2078 1.26813 11.272 1.42956 11.272C1.59099 11.272 1.74581 11.2078 1.85995 11.0937L3.8752 9.07794L6.17755 11.3798C6.36725 11.5693 6.62437 11.6758 6.89251 11.676C6.9158 11.676 6.93959 11.676 6.96339 11.6735C7.10792 11.663 7.24853 11.6217 7.37571 11.5522C7.5029 11.4828 7.6137 11.3869 7.70063 11.2709C7.9381 10.9555 8.25761 10.4542 8.43179 9.85316C8.60597 9.25213 8.60648 8.69464 8.43989 8.16197L11.0577 5.53556C11.246 5.34571 11.3516 5.08908 11.3514 4.82166C11.3512 4.55425 11.2453 4.29776 11.0567 4.10818ZM7.29657 7.59132C7.20667 7.68155 7.1474 7.79776 7.12714 7.92351C7.10688 8.04926 7.12665 8.17819 7.18365 8.2921C7.35733 8.63945 7.53303 9.35542 6.86567 10.3504L1.73641 5.22163C2.80428 4.48287 3.73798 4.88542 3.81242 4.91782C3.92583 4.97671 4.05529 4.99724 4.18136 4.97633C4.30744 4.95543 4.42333 4.89421 4.51168 4.80187L7.26771 2.03673L10.0526 4.82162L7.29657 7.59132Z" fill="#1E1E1E"/>
</svg>
