<svg width="12" height="12" viewBox="0 0 12 12" fill="none" xmlns="http://www.w3.org/2000/svg">
<path d="M11.0567 3.96109L7.98368 0.888591C7.88962 0.794435 7.77794 0.71974 7.655 0.668777C7.53206 0.617815 7.40028 0.591583 7.2672 0.591583C7.13412 0.591583 7.00234 0.617815 6.8794 0.668777C6.75646 0.71974 6.64477 0.794435 6.55072 0.888591L3.91976 3.52867C3.29037 3.36006 2.06249 3.23904 0.793593 4.26287C0.682785 4.35202 0.591997 4.46351 0.527142 4.59008C0.462286 4.71664 0.424817 4.85545 0.417174 4.99747C0.409531 5.13948 0.431886 5.28151 0.482783 5.41431C0.53368 5.54711 0.611978 5.6677 0.712578 5.76823L3.01442 8.07057L0.999169 10.0858C0.885022 10.2 0.820894 10.3548 0.820894 10.5162C0.820894 10.6776 0.885022 10.8325 0.999169 10.9466C1.11332 11.0608 1.26813 11.1249 1.42956 11.1249C1.59099 11.1249 1.74581 11.0608 1.85995 10.9466L3.8752 8.93085L6.17755 11.2327C6.36725 11.4222 6.62437 11.5287 6.89251 11.5289C6.9158 11.5289 6.93959 11.5289 6.96339 11.5264C7.10792 11.5159 7.24853 11.4746 7.37571 11.4051C7.5029 11.3357 7.6137 11.2398 7.70063 11.1238C7.9381 10.8084 8.25761 10.3071 8.43179 9.70606C8.60597 9.10503 8.60648 8.54755 8.43989 8.01487L11.0577 5.38847C11.246 5.19862 11.3516 4.94198 11.3514 4.67457C11.3512 4.40715 11.2453 4.15067 11.0567 3.96109ZM7.29657 7.44422C7.20667 7.53446 7.1474 7.65066 7.12714 7.77641C7.10688 7.90216 7.12665 8.0311 7.18365 8.145C7.35733 8.49236 7.53303 9.20833 6.86567 10.2033L1.73641 5.07454C2.80428 4.33578 3.73798 4.73832 3.81242 4.77073C3.92583 4.82962 4.05529 4.85015 4.18136 4.82924C4.30744 4.80833 4.42333 4.74712 4.51168 4.65478L7.26771 1.88963L10.0526 4.67452L7.29657 7.44422Z" fill="#1E1E1E"/>
<path d="M7.29657 7.44422C7.20667 7.53446 7.1474 7.65066 7.12714 7.77641C7.10688 7.90216 7.12665 8.0311 7.18365 8.145C7.35733 8.49236 7.53303 9.20833 6.86567 10.2033L1.73641 5.07454C2.80428 4.33578 3.73798 4.73832 3.81242 4.77073C3.92583 4.82962 4.05529 4.85015 4.18136 4.82924C4.30744 4.80833 4.42333 4.74712 4.51168 4.65478L7.26771 1.88963L10.0526 4.67452L7.29657 7.44422Z" fill="#1E1E1E"/>
</svg>
