<svg width="464" height="464" viewBox="0 0 464 464" fill="none" xmlns="http://www.w3.org/2000/svg">
<path d="M381 0.866638H82.3333C60.552 0.866638 39.6613 9.5229 24.2547 24.924C8.85333 40.3306 0.197327 61.2213 0.197327 83.0026V381.669C0.197327 403.451 8.85359 424.341 24.2547 439.748C39.6613 455.149 60.552 463.805 82.3333 463.805H381C402.781 463.805 423.672 455.149 439.079 439.748C454.48 424.341 463.136 403.451 463.136 381.669V83.0026C463.136 61.2213 454.48 40.3306 439.079 24.924C423.672 9.52264 402.781 0.866638 381 0.866638ZM418.333 381.667C418.333 391.568 414.401 401.063 407.401 408.068C400.396 415.068 390.901 419 381 419H82.3331C72.432 419 62.9371 415.068 55.9317 408.068C48.9317 401.063 44.9995 391.568 44.9995 381.667V83C44.9995 73.0989 48.9317 63.604 55.9317 56.5986C62.9369 49.5986 72.4317 45.6664 82.3331 45.6664H381C390.901 45.6664 400.396 49.5986 407.401 56.5986C414.401 63.6038 418.333 73.0986 418.333 83V381.667Z" fill="white"/>
<path d="M149.533 150.2H194.336V195.003H149.533V150.2Z" fill="white"/>
<path d="M149.533 269.667H194.336V314.469H149.533V269.667Z" fill="white"/>
<path d="M269 150.2H313.803V195.003H269V150.2Z" fill="white"/>
<path d="M269 269.667H313.803V314.469H269V269.667Z" fill="white"/>
</svg>
